<?xml version="1.0" encoding="utf-8"?>
<svg width="497px" height="481px" viewBox="0 0 497 481" version="1.1" xmlns:xlink="http://www.w3.org/1999/xlink" xmlns="http://www.w3.org/2000/svg">
  <g id="paper-play">
    <g id="paper-play">
      <g id="paper" transform="matrix(0.87462026 0.4848095 -0.4848095 0.87462026 164.33612 0)">
        <g id="Group" transform="matrix(1 4.4222936E-08 -4.4222936E-08 1 -0.00012207031 -0.00024414062)">
          <path d="M293.023 11.2678L278.633 24.3104L259.147 33.7137L230.123 30.9109L198.302 28.6289L172.55 31.6L141.154 35.318L116.752 37.7338L96.8407 41.1371L78.015 45.8582L72.6795 55.3624L77.9743 62.8873L92.7622 71.9883L113.362 72.712L127.826 71.2348L153.889 71.8533L170.441 74.2428L167.421 92.4344L155.351 111.703L129.838 131.652L113.676 141.956L93.8921 154.758L69.9123 168.342L47.8571 183.087L33.2252 192.194L25.1751 200.988L28.1647 211.982L37.5414 216.315L55.6935 209.288L81.3674 197.212L105.643 185.398L128.239 173.895L140.615 168.551L143.066 171.135L130.39 185.045L113.831 198.159L87.0667 219.252L64.6309 238.627L51.7916 249.833L42.2107 259.823L46.4489 274.84L61.7495 278.374L75.1147 268.591L97.5661 251.036L112.579 237.299L134.191 219.9L150.239 207.186L161.333 199.345L163.322 202.622L148.883 223.244L128.255 246.538L105.817 271.081L92.0709 285.495L83.7231 297.688L90.5462 309.183L103.231 312.597L118.803 298.755L140.451 274.663L162.938 250.415L182.742 229.098L197.985 215.014L203.875 215.74L203.327 228.001L190.563 253.478L177.258 275.713L168.247 297.755L168.965 310.692L177.14 316.465L188.136 308.034L200.205 288.766L210.021 268.093L224.347 245.06L237.272 227.456L256.055 206.937L275.678 186.262L294.544 164.512L310.466 142.398L319.722 121.829L349.995 112.589C349.995 112.589 335.752 80.0189 321.723 55.3623C307.695 30.7057 293.023 11.2678 293.023 11.2678Z" id="New-shape" fill="#FFC600" fill-rule="evenodd" stroke="#000000" stroke-width="2" />
        </g>
      </g>
    </g>
  </g>
</svg>