<?xml version="1.0" encoding="utf-8"?>
<svg width="487px" height="471px" viewBox="0 0 487 471" version="1.1" xmlns:xlink="http://www.w3.org/1999/xlink" xmlns="http://www.w3.org/2000/svg">
  <g id="rock-play">
    <g id="Group">
      <g id="Component" />
      <g id="rock-play-2" transform="translate(88.60004 107.299805)">
        <g id="rock" transform="matrix(-0.034898236 -0.99939114 0.99939114 -0.034898236 8.571869 256.052)">
          <g id="Group" transform="matrix(1 1.0576229E-10 -1.0576229E-10 1 0 -1.5258789E-05)">
            <path d="M170 285.168L171.193 281.67L176.891 256.771L201.108 230.061L228.174 200.502L244.556 173.436L245.625 123.934L225.325 101.141L217.8 95.0545L201.108 81.5541L181.036 66.3755L184.014 56.2688L190.78 23.5047L171.193 4.62971L145.552 14.9575L137.361 47.0094L136.016 47.0095L134.868 39.1745L130.594 8.90329L108.158 7.00574e-09L90.7075 14.9575L90.7075 29.5589L92.132 45.5848L90.7075 45.5848L82.1603 22.7924L61.5047 16.7382L41.9175 28.4905L47.6156 49.1461L50.1085 56.2688L62.5731 94.3748L67.2028 117.167L76.1061 133.549L95.6933 132.125L105.665 118.948L103.172 96.5116L95.6933 60.5424L90.5026 45.0383" id="New-shape" fill="#FFC600" fill-rule="evenodd" stroke="#000000" stroke-width="2" />
            <path d="M-0.000244141 55.8832L2.01221 76.6274L6.642 100.844L12.3401 134.321L17.326 167.797L24.4487 201.63L32.9959 231.901L45.8169 255.405L44.0362 282.115L42.1444 298.399C42.1444 298.399 73.9139 302.868 104.712 303.062C135.51 303.257 165.336 298.01 165.336 298.01L170 285.114" id="New-shape-3" fill="#FFC600" fill-rule="evenodd" stroke="#000000" stroke-width="2" />
            <path d="M64.8245 108.15L62.4357 95.1056L50.3056 58.1605L49.5057 58.9378L48.8813 59.715L49.5057 70.7668L51.9986 76.8211L63.0387 103.175L68.0246 117.064L71.8942 129.332L69.8052 144.13L54.1354 148.047L38.4656 138.076L23.152 111.722L10.6874 81.4508L0.00341797 56.1654L18.1661 45.4815L39.8902 46.1937L49.5057 70.7668" id="New-shape-2" fill="#FFC600" fill-rule="evenodd" stroke="#000000" stroke-width="2" />
            <path d="M91.5293 14.4984L97.9397 54.3852L103.282 86.7932L106.487 105.312L110.76 120.27L128.923 124.187L143.881 111.01L142.456 92.1351L138.539 61.5078L134.85 46.945" id="New-shape-4" fill="#FFC600" fill-rule="evenodd" stroke="#000000" stroke-width="2" />
            <path d="M146.374 14.4984L143.525 47.2625C143.525 47.2625 140.779 76.9482 140.676 77.1776" id="New-shape-5" fill="#FFC600" fill-rule="evenodd" stroke="#000000" stroke-width="2" />
            <path d="M144.954 111.455L141.068 114.564L156.701 120.269L172.371 112.79L173.084 110.297L169.166 107.804L151.716 88.9295L146.018 68.63L147.442 57.946L160.263 54.7408L180.881 66.3215" id="New-shape-6" fill="#FFC600" fill-rule="evenodd" stroke="#000000" stroke-width="2" />
            <path d="M206.203 141.993L191.246 126.324L183.767 118.845L173.109 110.624" id="New-shape-7" fill="#FFC600" fill-rule="evenodd" stroke="#000000" stroke-width="2" />
            <path d="M162.79 285.168L169.204 285.168L169.981 281.648L129.176 125.812L110.134 121.537L106.422 105.938L100.981 75.2374L98.8641 69.4624L103.59 97.1969L106.033 119.54L95.9291 132.753L76.1096 134.307L72.438 127.755L70.3199 144.843L61.2837 147.307L61.6944 147.718L162.79 285.168Z" id="New-shape-2" fill="#FFC600" fill-rule="evenodd" stroke="none" />
          </g>
        </g>
      </g>
    </g>
  </g>
</svg>