<?xml version="1.0" encoding="utf-8"?>
<svg width="487px" height="471px" viewBox="0 0 487 471" version="1.1" xmlns:xlink="http://www.w3.org/1999/xlink" xmlns="http://www.w3.org/2000/svg">
  <g id="scissors-play">
    <g id="scissors-play">
      <g id="scissors-play">
        <g id="scissors" transform="matrix(-0.8290394 0.55919635 -0.55919635 -0.8290394 486.58188 261.0879)">
          <g id="Group-5" transform="matrix(0.9999991 -6.1215013E-07 6.1215013E-07 0.9999991 -0.00012207031 0.00024414062)">
            <path d="M63.9633 0L68.219 5L74.2998 10.2472L95.1025 25.9293L121.026 28.1696L150.15 37.1309L181.515 48.9725L211.279 62.4143L241.363 74.8961L262.165 86.0974L283 97.6191C283 97.6191 283 102.367 283 107.328C283 112.289 283 117.328 283 117.328L272 133.328L263.446 132.184L284.889 144.665L286.489 164.828L271.447 177.95L255.444 174.75L278.808 189.471L306.332 206.434L327.135 217.315L354.979 234.918L371.301 245.799L374.5 263.722L361.06 274.283L346.018 267.562L329.055 258.281L298.971 240.998L265.366 220.196L244.883 207.394L225.041 198.753L223.44 202.593L234.642 214.115L256.085 233.638L279.448 255.08L304.092 276.843L320.734 291.565L320.414 307.248L309.853 314.928L295.131 310.128L279.129 297.646L254.485 279.084L229.841 258.281L207.758 241.639L190.156 228.197L185.675 225.316L164.552 234.278L137.028 242.599L108.544 246.439L68.219 220.836L53.817 193.952L42.2954 158.107L32.0539 125.783L0 97.6191C0 97.6191 10.875 74.9326 27 50.5278C43.125 26.123 63.9633 0 63.9633 0Z" id="New-shape-2" fill="#F8C000" fill-rule="evenodd" stroke="#000000" stroke-width="2" />
            <path d="M284.907 144.281L284.907 144.281L257.383 136.6L220.579 126.678L198.816 118.997L181.853 117.397L173.532 133.079L179.933 148.121L199.136 157.082L233.06 169.884L255.143 174.685L271.163 178L286.163 165L284.907 144.281Z" id="New-shape-4" fill="#F8C000" fill-rule="evenodd" stroke="#000000" stroke-width="2" />
            <path d="M283.067 97.4275L256.183 93.0018L226.099 86.921L197.295 85.3208L181.613 92.0417L176.812 106.124L188.014 115.405L213.937 122.126L240.821 126.926L265.144 132.047L272.163 133.427L283.067 117.427L283.067 97.4275Z" id="New-shape-3" fill="#F8C000" fill-rule="evenodd" stroke="#000000" stroke-width="2" />
            <path d="M113.65 206.397L142.454 200.637L158.456 195.516L182.139 191.675L201.341 197.756L209.663 204.157L206.462 215.679L185.659 225.28L164.448 234.528L136.948 242.528L108.448 246.528L67.9482 221.028L53.4482 194.028" id="New-shape-5" fill="#F8C000" fill-rule="evenodd" stroke="#000000" stroke-width="2" />
          </g>
        </g>
      </g>
    </g>
  </g>
</svg>